<?xml version="1.0" encoding="UTF-8"?>
<svg version="1.1" xmlns="http://www.w3.org/2000/svg" width="170" height="153">
<path d="M0 0 C1.50298346 0.00138269 1.50298346 0.00138269 3.03633022 0.00279331 C4.18202984 0.00141865 5.32772945 0.00004398 6.50814724 -0.00137234 C8.41030499 0.00402058 8.41030499 0.00402058 10.35089016 0.00952244 C11.69092208 0.00980431 13.03095415 0.00964657 14.37098598 0.00907993 C18.01958415 0.00879196 21.66814971 0.01468863 25.31674027 0.02165389 C29.12576493 0.02788749 32.93479026 0.02849123 36.74381924 0.0296793 C43.96156731 0.0327926 51.17930031 0.04100597 58.39704174 0.05102879 C66.61214234 0.06218997 74.82724364 0.06770039 83.04234993 0.07272422 C99.94590528 0.08318858 116.84944593 0.10078799 133.75298977 0.12304783 C133.77935513 1.07282001 133.80572048 2.0225922 133.83288479 3.00114536 C133.93331951 6.6035683 134.0358928 10.20592798 134.13903713 13.80827427 C134.18297515 15.35267162 134.22637115 16.89708451 134.26916409 18.44151402 C135.35123685 57.43024576 139.46851066 95.79998019 152.65142727 132.77148533 C153.75298977 136.12304783 153.75298977 136.12304783 153.75298977 139.12304783 C108.87298977 139.12304783 63.99298977 139.12304783 17.75298977 139.12304783 C17.09298977 136.81304783 16.43298977 134.50304783 15.75298977 132.12304783 C14.70498196 132.16945408 13.65697414 132.21586033 12.57720852 132.26367283 C11.19833076 132.30119331 9.81942219 132.33759318 8.44048977 132.37304783 C7.7501968 132.40656345 7.05990383 132.44007908 6.34869289 132.47461033 C1.22569028 132.57360555 1.22569028 132.57360555 -1.16497898 130.29492283 C-2.93960947 126.73284864 -3.37236773 123.98793493 -3.37399387 120.06149387 C-3.3768137 119.01545994 -3.37963352 117.969426 -3.3825388 116.89169407 C-3.38051456 115.74455936 -3.37849033 114.59742466 -3.37640476 113.4155283 C-3.37815708 112.20725376 -3.3799094 110.99897923 -3.38171482 109.75409031 C-3.38536505 106.44023498 -3.38450522 103.12644198 -3.38133574 99.81259012 C-3.37880655 96.348377 -3.38115113 92.88416657 -3.3827219 89.41995335 C-3.38454147 83.60434585 -3.38214234 77.78875105 -3.37738132 71.97314548 C-3.371934 65.24128322 -3.37370562 58.50945122 -3.37920773 51.77758968 C-3.38373881 46.00346106 -3.38438959 40.22934158 -3.38176906 34.45521176 C-3.38020691 31.0039283 -3.38001092 27.55265909 -3.38330555 24.10137653 C-3.38671809 20.25816505 -3.38199465 16.41498777 -3.37640476 12.5717783 C-3.37842899 11.42059513 -3.38045322 10.26941196 -3.3825388 9.08334446 C-3.37971897 8.04295017 -3.37689915 7.00255589 -3.37399387 5.9306345 C-3.37361685 5.02103411 -3.37323982 4.11143372 -3.37285137 3.17426968 C-3.19478966 0.27184783 -2.90706872 0.15919309 0 0 Z " fill="#FEE01F" transform="translate(12.247010231018066,6.876952171325684)"/>
<path d="M0 0 C1.50298346 0.00138269 1.50298346 0.00138269 3.03633022 0.00279331 C4.18202984 0.00141865 5.32772945 0.00004398 6.50814724 -0.00137234 C8.41030499 0.00402058 8.41030499 0.00402058 10.35089016 0.00952244 C11.69092208 0.00980431 13.03095415 0.00964657 14.37098598 0.00907993 C18.01958415 0.00879196 21.66814971 0.01468863 25.31674027 0.02165389 C29.12576493 0.02788749 32.93479026 0.02849123 36.74381924 0.0296793 C43.96156731 0.0327926 51.17930031 0.04100597 58.39704174 0.05102879 C66.61214234 0.06218997 74.82724364 0.06770039 83.04234993 0.07272422 C99.94590552 0.08318858 116.84944548 0.10098844 133.75298977 0.12304783 C133.75298977 5.07304783 133.75298977 10.02304783 133.75298977 15.12304783 C89.20298977 15.12304783 44.65298977 15.12304783 -1.24701023 15.12304783 C-1.24701023 17.76304783 -1.24701023 20.40304783 -1.24701023 23.12304783 C-1.90701023 23.12304783 -2.56701023 23.12304783 -3.24701023 23.12304783 C-3.27588535 19.47723096 -3.29376608 15.83144319 -3.30951023 12.18554783 C-3.31788914 11.14462986 -3.32626804 10.10371189 -3.33490086 9.03125095 C-3.33973484 7.54721775 -3.33973484 7.54721775 -3.34466648 6.03320408 C-3.3499033 5.11676121 -3.35514011 4.20031834 -3.36053562 3.25610447 C-3.20300089 0.2961455 -2.96156306 0.16217723 0 0 Z " fill="#F6B119" transform="translate(12.247010231018066,6.876952171325684)"/>
<path d="M0 0 C0.33 0 0.66 0 1 0 C2.1426198 7.69445036 3.058899 15.3561649 3.65185547 23.11254883 C5.46158906 46.53018471 9.30141417 70.93348459 17.44702148 93.04931641 C18 95 18 95 18 99 C15.73020335 99.10794277 13.45894804 99.18556176 11.1875 99.25 C9.92292969 99.29640625 8.65835937 99.3428125 7.35546875 99.390625 C4 99 4 99 2.11328125 97.171875 C-0.26316778 92.53571478 -0.13503891 88.29726893 -0.11352539 83.21411133 C-0.11374443 81.86746147 -0.11374443 81.86746147 -0.1139679 80.49360657 C-0.11327064 77.52305697 -0.10548697 74.55256991 -0.09765625 71.58203125 C-0.09579141 69.52365656 -0.09436782 67.46528142 -0.09336853 65.40690613 C-0.08954859 59.98669206 -0.07972273 54.56650476 -0.06866455 49.14630127 C-0.05843921 43.61641807 -0.0538685 38.08653055 -0.04882812 32.55664062 C-0.03810003 21.70441532 -0.02102984 10.85220989 0 0 Z " fill="#414B4F" transform="translate(9,40)"/>
</svg>
